<?xml version="1.0" encoding="UTF-8" standalone="no"?>
<!-- Created with Inkscape (http://www.inkscape.org/) -->

<svg
   version="1.1"
   id="svg1101"
   width="360"
   height="780"
   viewBox="0 0 360 780"
   sodipodi:docname="skin1.svg"
   inkscape:version="1.1 (c68e22c387, 2021-05-23)"
   xmlns:inkscape="http://www.inkscape.org/namespaces/inkscape"
   xmlns:sodipodi="http://sodipodi.sourceforge.net/DTD/sodipodi-0.dtd"
   xmlns="http://www.w3.org/2000/svg"
   xmlns:svg="http://www.w3.org/2000/svg">
  <defs
     id="defs1105">
    <inkscape:perspective
       sodipodi:type="inkscape:persp3d"
       inkscape:vp_x="0 : 390 : 1"
       inkscape:vp_y="0 : 1000 : 0"
       inkscape:vp_z="360 : 390 : 1"
       inkscape:persp3d-origin="180 : 260 : 1"
       id="perspective1433" />
    <rect
       x="99.499992"
       y="183.49998"
       width="223.99998"
       height="159.49998"
       id="rect1839" />
  </defs>
  <sodipodi:namedview
     id="namedview1103"
     pagecolor="#ffffff"
     bordercolor="#666666"
     borderopacity="1.0"
     inkscape:pageshadow="2"
     inkscape:pageopacity="0.0"
     inkscape:pagecheckerboard="0"
     showgrid="false"
     inkscape:zoom="11.31371"
     inkscape:cx="144.24976"
     inkscape:cy="158.30351"
     inkscape:window-width="1920"
     inkscape:window-height="986"
     inkscape:window-x="-11"
     inkscape:window-y="-11"
     inkscape:window-maximized="1"
     inkscape:current-layer="layer5" />
  <g
     inkscape:groupmode="layer"
     id="layer9"
     inkscape:label="ember árnyék"
     style="display:inline">
    <ellipse
       style="opacity:0.25;fill:#4d4d4d;stroke:#1c2526;stroke-width:0.370516"
       id="path869"
       cx="181"
       cy="497.25"
       rx="66.552742"
       ry="8.7569399" />
  </g>
  <g
     inkscape:groupmode="layer"
     id="layer2"
     inkscape:label="cipő"
     style="display:inline">
    <path
       style="fill:#000000;stroke:none;stroke-width:1.06379px;stroke-linecap:butt;stroke-linejoin:miter;stroke-opacity:1"
       d="m 125.6319,497.07187 c 0.62097,-6.83018 10.39664,2.85444 20.30783,-15.57712 l 11.82725,-0.85272 4.47638,-0.39855 0.54231,5.75228 0.49861,7.97485 c -0.66867,0.70246 -5.12094,0.3615 -7.64201,1.50262 l -3.44368,0.98411 -4.24732,1.42722 c -6.4898,3.19797 -24.50716,4.10244 -22.31932,-0.81269 z"
       id="path1294"
       sodipodi:nodetypes="ccccccccccc" />
    <path
       style="fill:#000000;stroke:none;stroke-width:1px;stroke-linecap:butt;stroke-linejoin:miter;stroke-opacity:1"
       d="m 220.65508,485.73639 c 4.62614,7.79138 14.7368,9.85466 13.62636,15.51437 -3.77644,1.52544 -18.09833,4.71204 -24.52166,-4.48721 -1.24348,-1.78087 -2.6016,-3.56679 -6.78019,-5.46115 -0.92441,-4.11395 -0.75631,-9.12426 3.44953,-8.89453 13.99458,0.7644 13.6598,-0.72069 14.22596,3.32852"
       id="path6783"
       sodipodi:nodetypes="ccscsc" />
  </g>
  <g
     inkscape:groupmode="layer"
     id="layer5"
     inkscape:label="kéz"
     style="display:inline">
    <path
       style="fill:#ffb380;fill-opacity:1;stroke:none;stroke-width:0.1;stroke-linecap:butt;stroke-linejoin:miter;stroke-miterlimit:4;stroke-dasharray:none;stroke-opacity:1"
       d="m 141.70471,314.05269 c 0.55286,0.39627 2.14644,1.25715 3.99798,1.94656 0.48563,0.38012 1.06895,0.63741 1.67161,0.80214 0.67823,0.18538 1.73226,0.15459 2.26568,0.34832 0.76636,0.27835 0.98721,1.28278 1.505,0.21475 0.3573,-0.73701 1.34986,0.33746 1.14738,1.16635 -3.36279,1.58624 -5.26242,0.009 -8.05054,-1.32054 -0.80439,-1.11763 -1.70716,-1.96397 -2.2483,-2.73213 -0.36002,-1.26961 -0.17184,-0.99511 0,0 l 2.24832,2.73198 c 1.67433,0.4791 2.0865,1.56401 4.87753,1.91574 7.66805,0.26938 1.05114,2.85916 1.34557,2.51849 -1.17636,-0.18229 -1.57184,0.0381 -2.4469,-0.27708 -1.68741,-0.41365 -3.31567,-1.55978 -4.54551,-2.60054 -1.72194,-1.45721 -2.58796,-2.78794 -2.41957,-2.38277 l 3.6092,3.54504 c 1.80012,0.48653 2.05763,1.39931 3.47543,1.4941 9.6136,0.64281 8.1401,5.2314 -4.63268,1.47509 l -3.94664,-4.49298 -3.55679,-3.92773 -3.9659,-5.70248 c 0.20215,-3.39632 4.01872,-3.65941 6.11485,-5.20171 l 2.76522,-2.14104 c 2.28387,1.07416 4.77931,4.00605 5.99088,6.07416 3.28936,3.17986 2.8702,5.55033 2.76196,4.20811 3.40588,9.47165 -0.30195,6.00337 -1.85451,2.09399 -0.39349,-0.99081 -1.71467,-1.79143 -2.36447,-2.57517 -0.51565,-0.62196 -2.00213,-0.75029 -3.226,1.46189 -0.20334,0.36755 1.39635,1.6377 1.33736,2.24134 -0.0798,0.8204 -2.33088,0.70355 -2.50791,1.44739"
       id="path14965"
       sodipodi:nodetypes="ccsssccccccccsccsccccccccssssc" />
    <path
       style="display:inline;fill:#ffb380;fill-opacity:1;stroke:none;stroke-width:0.1;stroke-linecap:butt;stroke-linejoin:miter;stroke-miterlimit:4;stroke-dasharray:none;stroke-opacity:1"
       d="m 147.91918,307.03186 c 0.48764,0.63168 1.94821,1.19361 3.33487,1.58983 3.26733,-0.813 1.17862,-1.8657 -0.448,-1.0986 -0.86677,0.40875 -2.61968,-0.84565 -3.54084,-0.96938"
       id="path18781"
       sodipodi:nodetypes="ccsc" />
    <path
       style="display:inline;fill:#ffb380;fill-opacity:1;stroke:none;stroke-width:0.112898;stroke-linecap:butt;stroke-linejoin:miter;stroke-miterlimit:4;stroke-dasharray:none;stroke-opacity:1"
       d="m 215.46401,314.72663 c -0.59709,0.38698 -2.10681,2.43515 -4.04465,2.9384 -0.52757,0.37977 -1.14196,0.58815 -1.76693,0.67779 -0.70334,0.10088 -1.83537,-0.34433 -2.32329,2.2e-4 -0.66854,0.47204 -1.23354,1.41114 -1.31201,0.1693 -0.065,-1.02975 -1.36633,0.0486 -1.24202,1.11762 3.24457,2.61395 5.05689,0.93968 8.00319,-0.18063 0.92115,-1.23554 1.9154,-2.11508 2.53666,-2.96655 0.4868,-1.50929 0.27005,-1.20407 0,0 l -2.53666,2.96636 c -1.73837,0.27572 -2.25997,1.54553 -5.11448,1.4496 -7.20039,-0.65365 -1.4024,3.25171 -1.7281,2.72134 1.20642,-10e-4 1.7091,0.49968 2.62389,0.27507 1.07855,-0.12765 2.69954,-0.58044 3.48856,-1.09067 0.83969,-0.54298 1.17505,-1.10185 1.35676,-1.27354 2.49821,-2.36043 3.04036,-2.96066 2.67589,-2.49958 l -3.99063,3.717 c -1.02617,0.45085 -1.75504,0.79672 -2.57167,0.98958 -0.34236,0.0809 -0.6608,0.28041 -1.08513,0.20377 -8.88303,-1.60412 -7.74489,2.52926 3.51887,2.75556 l 7.05096,-4.56419 2.60456,-4.21827 4.12813,-9.215 c -1.33579,-3.21407 -3.51216,-2.71997 -5.48099,-5.03736 l -2.58695,-3.18942 c -2.41199,0.89892 -5.21773,4.06658 -6.64241,6.40575 0,0 -2.03768,3.90563 -3.08814,4.85947 -4.35929,11.12247 -0.38696,7.36329 1.56066,2.80058 0.49367,-1.15637 1.90628,-1.89922 2.63883,-2.7493 0.58134,-0.67456 2.09592,-0.55016 3.11844,2.4332 0.16988,0.49567 0.39163,1.0248 0.39276,1.78636 9.4e-4,1.03502 0.32597,2.06381 0.4328,3.02218"
       id="path14965-7"
       sodipodi:nodetypes="ccsssccccccccssccssccccccccssssc" />
  </g>
  <g
     inkscape:groupmode="layer"
     id="layer7"
     inkscape:label="nadrág árnyék"
     style="display:inline">
    <path
       style="display:inline;fill:#2d3a3d;fill-opacity:1;stroke:none;stroke-width:0.950579px;stroke-linecap:butt;stroke-linejoin:miter;stroke-opacity:1"
       d="m 143.64379,486.00737 c 2.77574,-9.32817 -1.69922,-32.36065 19.68741,-0.004 l 3.64679,-27.40529 -0.1803,-31.17282 3.9334,-39.48667 c 3.87294,-17.08783 4.55184,-34.24698 5.03777,-51.7302 v 0 l 0.0757,9.32241 7.5697,17.01669 5.10045,21.28165 3.43144,13.40027 c 6.39896,31.41763 0.8768,63.23229 8.45383,88.1914 6.42717,-0.16132 11.67853,-3.01654 19.40223,-0.20736 l -2.1252,-15.91933 -1.21583,-19.31074 -1.71181,-26.7926 -0.0807,-12.70142 -0.30377,-17.54549 -9.46727,-74.43164 -0.62115,-22.01453 -26.00483,7.48592 -23.23371,-1.02616 -6.90392,-2.9355 -4.9192,42.33248 -0.49186,53.63347 0.61936,52.86275 1.14519,23.1721 -0.84376,13.98414"
       id="path2875-0"
       sodipodi:nodetypes="cccccccccccccccccccccccccccc" />
  </g>
  <g
     inkscape:groupmode="layer"
     id="layer3"
     inkscape:label="nadrág"
     style="display:inline">
    <path
       style="fill:#374548;stroke:none;stroke-width:1px;stroke-linecap:butt;stroke-linejoin:miter;stroke-opacity:1"
       d="m 143.64375,486.0069 c 2.76908,-3.53725 1.43054,-0.65278 3.20177,-1.89255 3.46301,0.55883 5.80981,1.27682 6.48576,2.00758 8.65983,-1.93342 6.43041,-0.34317 9.99992,-0.11809 l 3.24169,-27.67903 0.49872,-31.17008 5.23657,-39.39898 c 2.63956,-8.74129 -1.42358,-39.30069 6.60773,-42.29561 l 7.84792,19.73334 2.39767,18.92514 4.94341,14.78758 c 6.37647,31.54071 -0.44615,63.23709 7.37847,88.34444 l 7.94517,-0.4318 4.77606,-2.79491 5.5976,1.18999 3.12679,1.94813 c -4.18742,-4.7945 -0.59424,-11.6843 -0.49933,-17.11729 l -0.91274,-19.33139 -1.29394,-26.82176 0.19519,-12.70045 0.0569,-17.54805 -3.02972,-66.72235 c 6.74838,-18.73288 -2.87704,-21.03316 -4.72326,-29.86462 l -30.19015,6.91445 -25.68414,-1.49617 -9.53074,-2.1609 c -1.90391,2.5663 -12.5734,5.03059 -3.71479,25.45437 l -0.71867,15.85615 -1.74552,53.61253 -0.49872,52.86445 0.74808,23.19054"
       id="path2875"
       sodipodi:nodetypes="ccccccccccccccccccccccccccccccc" />
  </g>
  <g
     inkscape:groupmode="layer"
     id="layer11"
     inkscape:label="nyak"
     style="display:inline">
    <path
       style="fill:#f0a878;fill-opacity:1;stroke:none;stroke-width:1px;stroke-linecap:butt;stroke-linejoin:miter;stroke-opacity:1"
       d="m 168.91409,189.70067 3.93985,-0.61974 1.0254,-2.28569 0.37504,-4.06819 19.70943,-0.85157 -0.5468,6.24302 3.61574,2.84421 v 0 l 1.91493,3.51594 -15.08764,7.11648 -13.59281,-3.53568 -1.35314,-8.35878"
       id="path61116"
       sodipodi:nodetypes="cccccccccccc" />
  </g>
  <g
     inkscape:groupmode="layer"
     id="layer8"
     inkscape:label="fej"
     style="display:inline">
    <path
       style="fill:#ffb380;fill-opacity:1;stroke:none;stroke-width:1px;stroke-linecap:butt;stroke-linejoin:miter;stroke-opacity:1"
       d="m 166.117,167.53756 c 1.48659,-3.14487 1.53509,-1.89411 2.20895,-2.55483 l -0.0766,-13.81487 3.75788,-4.54862 4.73807,-1.1012 7.48757,-0.19199 5.15294,0.31424 3.64668,1.48192 2.07016,3.63351 0.13927,2.52491 -0.0675,3.44676 0.36158,2.48789 0.86441,3.34432 c 0.20501,1.77429 0.41199,2.22591 1.89323,2.97969 2.7318,0.06 1.96232,1.88164 1.28179,4.10953 -1.15274,1.99432 -0.53122,3.90146 -2.71099,4.68768 l -0.87818,0.12883 -0.35471,3.63387 -0.90251,3.80108 -5.69724,3.35548 -4.7162,1.29329 -3.66895,0.0902 c -2.4989,-0.41237 -4.67089,-1.4541 -6.92143,-2.53799 -2.02803,-2.73901 -2.83138,-5.79477 -3.77293,-9.00192 -0.59647,-2.80308 0.74034,-0.76339 -2.00731,-1.94472 l -1.89876,-3.43071 0.0708,-2.18635"
       id="path53866"
       sodipodi:nodetypes="ccccccccccccccccccccccccccc" />
  </g>
  <g
     inkscape:groupmode="layer"
     id="layer10"
     inkscape:label="haj"
     style="display:inline">
    <path
       style="fill:#28170b;stroke:none;stroke-width:1px;stroke-linecap:butt;stroke-linejoin:miter;stroke-opacity:1"
       d="m 171.43127,149.85601 2.44596,-1.11461 c 1.37848,-0.32635 2.15332,-0.49696 3.12286,-1.4466 l 4.41009,-0.75233 1.09072,0.11276 1.12932,-0.73722 5.33253,0.54865 4.09487,1.55869 1.81495,2.32496 0.30186,6.37708 0.36155,2.48789 0.59024,5.20068 c 0.15999,0.44839 1.19875,0.49905 1.19875,0.49905 1.03925,-0.86911 0.73615,-1.94721 1.60448,-4.76306 0.38431,-1.24625 -0.0438,-2.49327 -0.0147,-4.14436 0.0279,-1.58517 0.3166,-4.28897 0.34658,-5.9866 -0.2485,-0.6024 -0.67355,-1.57597 -1.13277,-1.71145 -0.85111,-0.25109 -1.85535,-0.91017 -2.06087,-0.27414 l -0.27132,-1.5584 -0.19663,-1.29968 -1.11072,-3.5394 c -0.50062,-1.82451 -0.12688,-4.33657 -6.90698,-6.40395 -2.92269,-0.77674 -4.04143,-0.59244 -7.0814,0.38047 l 3.99015,1.36197 c 5.51788,3.90158 6.57106,4.09029 0,0 l -2.89466,-0.61665 -2.93162,-0.82503 c 1.54548,0.95568 2.00347,0.45415 2.55516,2.06083 l -0.47319,-0.33526 c -0.81103,-0.76797 -0.0959,-0.4739 -4.97867,-1.23924 l -5.19112,1.19976 3.86099,-0.18859 c 9.35722,3.11249 -0.46755,-0.39515 -4.19675,1.05412 -0.73351,0.3237 4.31183,0.30756 3.9801,1.04249 l -6.62696,3.39181 c 1.77084,-0.64461 5.74951,-2.09602 6.13778,-1.56294"
       id="path43116"
       sodipodi:nodetypes="ccccccccccccssscsccccccccccccccccccc" />
    <path
       style="fill:#28170b;stroke:none;stroke-width:1px;stroke-linecap:butt;stroke-linejoin:miter;stroke-opacity:1"
       d="m 173.73189,140.95771 c -4.4456,0.49799 -4.97484,2.35884 -7.00438,6.04538 l 4.24137,-3.75867 -5.3514,7.07109 5.81645,-4.05445 -4.29866,3.36255 -0.46213,4.61245 -0.0934,4.812 1.74621,5.93467 1.06599,-0.0905"
       id="path43130"
       sodipodi:nodetypes="cccccccccc" />
    <path
       style="fill:#28170b;stroke:none;stroke-width:1px;stroke-linecap:butt;stroke-linejoin:miter;stroke-opacity:1"
       d="m 169.39194,164.89223 -0.23716,-4.25995 2.8313,-8.9158 c -2.58528,-3.82995 0.0468,0.97636 -0.55484,-1.86047"
       id="path43132"
       sodipodi:nodetypes="cccc" />
  </g>
  <g
     inkscape:groupmode="layer"
     id="layer1"
     inkscape:label="karok"
     style="display:inline">
    <path
       style="display:inline;fill:#ffb380;fill-opacity:1;stroke:none;stroke-width:0.954198px;stroke-linecap:butt;stroke-linejoin:miter;stroke-opacity:1"
       d="m 160.51987,224.11659 c 7.79658,10.02424 -5.73153,20.48727 -5.85619,29.71174 l -1.64596,7.13627 -0.94313,8.43062 c -0.091,4.48633 -1.8186,5.99002 -1.8578,9.12657 l -0.81058,8.72256 -1.27219,12.77808 13.31002,-0.98871 1.71044,0.46874 15.66896,1.373 c 12.46603,-1.52894 14.60114,-3.21202 27.04875,-4.97487 l 6.84991,1.15555 -0.66195,-10.13101 v 0 l -0.21829,-6.93414 -0.005,-9.43557 c 0.52146,-1.97877 -0.0356,-4.57867 -0.41304,-6.58396 l 4.3293,-31.23179 c 0.18435,7.41221 -0.31549,4.87507 7.61502,19.99945 -3.50255,16.94964 -2.65135,35.85408 -4.1479,41.09832 l -1.55181,6.63559 c 1.39484,3.44106 4.43196,8.45983 8.06794,8.22678 8.99401,-16.29225 9.93325,-33.40709 13.87651,-49.24797 1.41454,-5.68247 -3.30896,-18.35626 -5.99215,-29.63954 l -3.01449,-14.55505 c -2.49128,-18.82337 -18.31284,-15.45149 -31.60939,-20.80358 -7.38549,10.75936 -22.42337,7.08549 -24.13855,-0.56701 -9.47658,0.0639 -23.54027,1.30792 -28.63855,5.35608 -3.2898,9.06696 15.76478,15.34037 14.30012,24.87385 z"
       id="path3237-2"
       sodipodi:nodetypes="ccccccccccccccccccccccscccccc" />
    <path
       style="display:inline;fill:#ffb380;fill-opacity:1;stroke:none;stroke-width:0.954198px;stroke-linecap:butt;stroke-linejoin:miter;stroke-opacity:1"
       d="m 152.87247,230.28826 c 4.93043,-8.62603 -1.61036,5.96432 -12.65963,23.07614 1.72011,17.22206 -1.0933,35.93535 -0.15024,41.30683 l 0.85305,6.76102 c -1.74528,3.27728 -5.28808,7.95283 -8.88007,7.34275 -7.25016,-17.13956 -6.40368,-34.25923 -8.67746,-50.42441 -0.81566,-5.7988 5.20079,-17.91238 9.04333,-28.85527 l 6.10342,-13.63211 c 6.63511,6.06885 26.00066,-50.8114 12.15816,15.04377 z"
       id="path3237-2-0"
       sodipodi:nodetypes="cccccscccc" />
  </g>
  <g
     inkscape:groupmode="layer"
     id="layer6"
     inkscape:label="felsőtest árnyék"
     style="display:inline">
    <path
       style="display:inline;fill:#8c7b70;fill-opacity:1;stroke:none;stroke-width:1.00391px;stroke-linecap:butt;stroke-linejoin:miter;stroke-opacity:1"
       d="m 234.79767,230.07962 -3.45477,-17.21584 c -2.49128,-20.83578 -21.05386,-17.23582 -34.35041,-23.1601 -7.38549,11.90963 -21.24597,7.79606 -22.96115,-0.67457 -6.91294,0.0515 -15.23385,1.08915 -21.20899,3.38615 -2.21586,0.85184 -3.77902,2.43034 -5.48831,3.08909 -1.92689,0.7426 -8.62349,18.08672 -13.33642,28.04904 -2.12858,3.07326 10.37581,11.63325 17.80372,8.26719 5.3437,-2.42157 6.09494,-16.77569 6.09494,-16.77569 l -4.0591,40.33427 -1.64596,7.89921 -0.94313,9.33194 c -0.091,4.96596 -1.8186,6.63041 -1.8578,10.10229 l -1.87124,7.87348 c 0,0 -5.84541,15.84439 -5.69926,15.86829 -1.15329,-0.52631 6.71299,1.36731 16.72062,0.0321 l 3.78757,-0.55011 16.79396,1.51979 c 12.46603,-1.69241 20.44402,-4.65191 32.89163,-6.60322 l 3.68646,0.0394 -2.16351,-8.98475 1.8276,-3.70025 -1.52206,-3.75918 -0.82826,-13.30615 c 0.52146,-2.19032 -0.0356,-4.41587 -0.41304,-6.63554 l 3.35703,-30.90197"
       id="path3237-7"
       sodipodi:nodetypes="ccccsscscccccccccccccccccc" />
  </g>
  <g
     inkscape:groupmode="layer"
     id="layer4"
     inkscape:label="felsőtest"
     style="display:inline">
    <path
       style="fill:#ac9d93;stroke:none;stroke-width:1px;stroke-linecap:butt;stroke-linejoin:miter;stroke-opacity:1"
       d="M 234.17895,229.10735 230.1655,212.7303 c -2.04934,-19.52475 -19.87646,-17.1484 -33.17301,-23.02662 -7.38549,11.81705 -22.42337,7.78203 -24.13855,-0.62275 -6.91294,0.0512 -13.99641,1.61101 -19.97155,3.89016 -2.21586,0.84521 -5.72357,3.64888 -7.43286,4.3025 -1.92689,0.73683 -7.91638,16.17835 -12.62931,26.06322 -2.12858,3.04936 10.00081,11.66683 17.42872,8.32694 5.3437,-2.40274 7.64734,-16.61886 7.64734,-16.61886 -8.33008,16.77302 -3.45349,31.37983 -6.88246,47.70806 l -0.94313,9.25939 c -0.091,4.92736 -1.8186,6.57886 -1.8578,10.02375 l -1.87124,7.81226 -5.7593,16.0315 c 10.31816,-0.84898 10.40513,1.99938 16.78066,-0.25475 l 3.78757,-0.54584 15.66896,1.50797 c 12.46603,-1.67924 22.74642,-3.79819 35.19403,-5.73434 l 3.68646,0.0394 -3.34091,-9.73274 1.8276,-3.67148 -1.52206,-3.72995 -0.82826,-13.2027 c 0.52146,-2.1733 1.3918,6.53375 1.01436,4.33133 0.30826,-2.22408 -1.98008,-2.97695 -1.11643,-12.83359 0.57797,-6.59625 1.21872,-16.32958 3.7534,-27.74365 0.29391,-1.32352 0.26387,0.002 0.51183,-5.06382 0.64776,-13.23468 -0.86828,-12.08983 0.44435,3.5633"
       id="path3237"
       sodipodi:nodetypes="ccccsscsccccccccccccccccsssc" />
    <text
       xml:space="preserve"
       id="text1837"
       style="font-style:normal;font-variant:normal;font-weight:normal;font-stretch:normal;font-size:35.3057px;line-height:1.25;font-family:'Snap ITC';-inkscape-font-specification:'Snap ITC';text-align:center;white-space:pre;shape-inside:url(#rect1839);display:inline;fill:#374548;fill-opacity:1;stroke:none"
       x="104.61914"
       y="0"
       transform="matrix(0.28807932,0.01222952,-0.0121608,0.28970728,127.03063,155.21765)"><tspan
         x="116.66765"
         y="214.73727"
         id="tspan143">Less Talk
</tspan><tspan
         x="102.10922"
         y="258.86939"
         id="tspan145">More Work</tspan></text>
  </g>
</svg>
