<?xml version="1.0" encoding="UTF-8" standalone="no"?>
<!-- Created with Inkscape (http://www.inkscape.org/) -->

<svg
   version="1.1"
   id="svg1101"
   width="360"
   height="780"
   viewBox="0 0 360 780"
   sodipodi:docname="skin_alap_hosszu.svg"
   inkscape:version="1.1 (c68e22c387, 2021-05-23)"
   xmlns:inkscape="http://www.inkscape.org/namespaces/inkscape"
   xmlns:sodipodi="http://sodipodi.sourceforge.net/DTD/sodipodi-0.dtd"
   xmlns="http://www.w3.org/2000/svg"
   xmlns:svg="http://www.w3.org/2000/svg">
  <defs
     id="defs1105" />
  <sodipodi:namedview
     id="namedview1103"
     pagecolor="#ffffff"
     bordercolor="#666666"
     borderopacity="1.0"
     inkscape:pageshadow="2"
     inkscape:pageopacity="0.0"
     inkscape:pagecheckerboard="0"
     showgrid="false"
     inkscape:zoom="5.9068465"
     inkscape:rotation="1"
     inkscape:cx="246.36615"
     inkscape:cy="339.75965"
     inkscape:window-width="1920"
     inkscape:window-height="986"
     inkscape:window-x="-11"
     inkscape:window-y="-11"
     inkscape:window-maximized="1"
     inkscape:current-layer="layer7" />
  <g
     inkscape:groupmode="layer"
     id="layer6"
     inkscape:label="ember árnyék"
     style="display:inline">
    <ellipse
       style="display:inline;opacity:0.25;fill:#4d4d4d;stroke:#1c2526;stroke-width:0.370516"
       id="path869"
       cx="181.23834"
       cy="500.20636"
       rx="66.552742"
       ry="8.7569399" />
  </g>
  <g
     inkscape:groupmode="layer"
     id="layer2"
     inkscape:label="cipő"
     style="display:inline">
    <path
       style="fill:#000000;stroke:none;stroke-width:1px;stroke-linecap:butt;stroke-linejoin:miter;stroke-opacity:1"
       d="m 220.65508,485.73639 c 4.62614,7.79138 14.7368,9.85466 13.62636,15.51437 -3.77644,1.52544 -18.09833,4.71204 -24.52166,-4.48721 -1.24348,-1.78087 -2.46786,-2.54573 -6.64645,-4.44009 -0.92441,-4.11395 -0.89005,-10.14532 3.31579,-9.91559 13.99458,0.7644 13.6598,-0.72069 14.22596,3.32852"
       id="path6783"
       sodipodi:nodetypes="ccscsc" />
    <path
       style="display:inline;fill:#000000;stroke:none;stroke-width:1.06379px;stroke-linecap:butt;stroke-linejoin:miter;stroke-opacity:1"
       d="m 123.33596,501.58449 c 1.62543,-8.4537 12.06449,0.15869 20.30783,-15.57712 l 11.82725,-0.85272 4.47638,-0.39855 0.54231,5.75228 0.24861,6.84985 c -0.66867,0.70246 -5.12094,0.7365 -7.64201,1.87762 l -2.94368,0.85911 -4.49732,1.30222 c -6.4898,3.19797 -24.50716,5.10244 -22.31932,0.18731 z"
       id="path1294"
       sodipodi:nodetypes="ccccccccccc" />
  </g>
  <g
     inkscape:groupmode="layer"
     id="layer5"
     inkscape:label="kéz"
     style="display:inline">
    <path
       style="fill:#ffb380;fill-opacity:1;stroke:none;stroke-width:0.1;stroke-linecap:butt;stroke-linejoin:miter;stroke-miterlimit:4;stroke-dasharray:none;stroke-opacity:1"
       d="m 133.46618,324.25975 c 0.19174,0.65262 0.0904,2.92115 1.12513,4.60425 0.1487,0.59852 0.45,1.16037 0.82353,1.66117 0.42037,0.56361 1.26996,1.1882 1.57107,1.66926 0.43258,0.69112 -0.0117,1.61863 1.05383,1.0957 0.73528,-0.36085 0.85603,1.09691 0.1862,1.62548 -3.62657,-0.82007 -4.15276,-3.23228 -5.53139,-5.99655 0.0541,-1.37595 -0.13633,-2.59866 -0.0899,-3.53714 0.49785,-1.22216 0.47717,-0.88999 0,0 l 0.09,3.53703 c 1.02455,1.40827 0.68149,2.51698 2.66447,4.5123 5.87706,4.93273 -0.93173,2.90028 -0.48998,2.81306 -0.81487,-0.86778 -1.26217,-0.93759 -1.75776,-1.72464 -1.07514,-1.36474 -1.65275,-3.27032 -1.98125,-4.84758 -0.45994,-2.2084 -0.32322,-3.79022 -0.43994,-3.36726 l 0.66195,5.01552 c 1.11909,1.49157 0.76012,2.36941 1.81909,3.31692 7.18038,6.42468 3.19445,9.13368 -4.5589,-1.68941 l -1.59812,-6.94969 0.86873,-4.30544 0.8872,-5.36323 c 2.25007,-2.55207 4.91758,-1.98199 7.5189,-1.90704 l 3.49718,0.015 c 1.13858,2.25244 1.30027,6.09914 0.98194,8.47477 0.6347,4.53085 -1.15489,6.14089 -0.41391,5.0165 -3.14668,9.56089 -3.93363,4.54514 -2.75053,0.50856 0.29985,-1.02305 -0.24846,-2.4673 -0.27807,-3.48495 -0.0235,-0.80757 -1.11593,-1.82378 -3.44222,-0.83386 -0.38651,0.16447 -0.82642,0.311 -1.2445,0.75039 -0.56818,0.59715 -1.35133,0.95875 -1.94874,1.43596"
       id="path14965"
       sodipodi:nodetypes="ccsssccccccccsccsccccccccssssc" />
    <path
       style="display:inline;fill:#ffb380;fill-opacity:1;stroke:none;stroke-width:0.1;stroke-linecap:butt;stroke-linejoin:miter;stroke-miterlimit:4;stroke-dasharray:none;stroke-opacity:1"
       d="m 133.80561,326.4945 c -0.0837,0.7936 0.58431,2.2088 1.31333,3.45312 2.92421,1.66896 2.14098,-0.535 0.43489,-1.10386 -0.90911,-0.30313 -1.3102,-2.42099 -1.89084,-3.14673"
       id="path18781"
       sodipodi:nodetypes="ccsc" />
    <path
       style="display:inline;fill:#ffb380;fill-opacity:1;stroke:none;stroke-width:0.0969091;stroke-linecap:butt;stroke-linejoin:miter;stroke-miterlimit:4;stroke-dasharray:none;stroke-opacity:1"
       d="m 223.18109,331.75632 c -0.33399,0.55641 -0.74666,2.65299 -2.13448,3.97363 -0.27983,0.51603 -0.70013,0.96622 -1.17704,1.34528 -0.53672,0.4266 -1.64584,0.72152 -1.90734,1.19448 -0.35831,0.648 -0.44308,1.5439 -1.00882,0.78362 -0.46911,-0.63045 -1.10211,0.73376 -0.56853,1.35902 3.71901,0.0173 4.53104,-1.99377 6.49772,-4.23064 0.25749,-1.27009 0.71872,-2.34827 0.88505,-3.21658 -0.20962,-1.22331 -0.26435,-0.91509 0,0 l -0.88513,3.21646 c -1.31591,1.0714 -1.23155,2.15819 -3.61382,3.56376 -6.1754,3.28008 0.16129,2.81733 -0.32021,2.64283 0.98974,-0.62136 1.60487,-0.55645 2.26526,-1.17152 0.83392,-0.63678 1.982,-1.76196 2.42382,-2.49651 0.4702,-0.78173 0.51992,-1.31443 0.5998,-1.51853 1.09816,-2.80605 1.30097,-3.47172 1.18787,-2.9871 l -1.77582,4.44785 c -0.66049,0.81818 -1.11927,1.41585 -1.71188,1.95999 -0.24844,0.22812 -0.42932,0.52048 -0.80863,0.68921 -7.94053,3.53228 -5.33755,5.61204 4.00137,-0.0324 l 3.94637,-6.56725 0.4355,-4.05847 -0.33074,-8.06314 c -2.39415,-1.38546 -3.7222,-2.06914 -6.2741,-2.55108 l -3.6707,1.39467 c -1.61736,1.81947 -2.64216,5.30403 -2.86753,7.54449 0,0 -0.0963,3.56551 -0.57368,4.72046 0.91097,9.41173 2.65474,4.94609 2.41184,1.00327 -0.0615,-0.9993 0.79838,-2.20439 1.05665,-3.12902 0.20497,-0.73375 1.49866,-1.43215 3.54247,-0.0344 0.33957,0.23224 0.73523,0.45937 1.04359,0.94978 0.41908,0.66649 1.10074,1.16299 1.57533,1.72594"
       id="path14965-7"
       sodipodi:nodetypes="ccsssccccccccssccssccccccccssssc" />
    <path
       style="display:inline;fill:#ffb380;fill-opacity:1;stroke:none;stroke-width:0.1;stroke-linecap:butt;stroke-linejoin:miter;stroke-miterlimit:4;stroke-dasharray:none;stroke-opacity:1"
       d="m 222.49996,333.33977 c -0.0973,0.79204 -1.06713,2.02026 -2.05785,3.06825 -3.22513,0.96692 -1.96531,-1.0038 -0.1749,-1.17348 0.95404,-0.0904 1.82216,-2.06338 2.55144,-2.63957"
       id="path18781-4"
       sodipodi:nodetypes="ccsc" />
  </g>
  <g
     inkscape:groupmode="layer"
     id="layer7"
     inkscape:label="nadrág árnyék"
     style="display:inline">
    <path
       style="display:inline;fill:#2d3a3d;fill-opacity:1;stroke:none;stroke-width:0.950579px;stroke-linecap:butt;stroke-linejoin:miter;stroke-opacity:1"
       d="m 143.64379,486.00737 20.96581,0.32382 2.36839,-27.73264 -0.1803,-31.17282 3.9334,-39.48667 c 3.87294,-17.08783 4.55184,-34.24698 5.03777,-51.7302 v 0 l 0.0757,9.32241 9.8678,31.51238 2.80235,6.78596 3.43144,13.40027 c 6.39896,31.41763 0.8768,63.23229 8.45383,88.1914 l 19.40223,-0.20736 -2.1252,-15.91933 -1.21583,-19.31074 -1.71181,-26.7926 -0.0807,-12.70142 -0.30377,-17.54549 -9.46727,-74.43164 -0.62115,-22.01453 -26.00483,7.48592 -23.23371,-1.02616 -8.12534,0.3264 c -0.84779,30.92608 -2.58288,61.81131 -4.18964,92.70405 l 0.61936,52.86275 1.14519,23.1721 -0.84376,13.98414"
       id="path2875-0"
       sodipodi:nodetypes="ccccccccccccccccccccccccccc" />
  </g>
  <g
     inkscape:groupmode="layer"
     id="layer3"
     inkscape:label="nadrág"
     style="display:inline">
    <path
       style="fill:#374548;stroke:none;stroke-width:1px;stroke-linecap:butt;stroke-linejoin:miter;stroke-opacity:1"
       d="m 140.14067,485.25575 23.19053,0.74809 3.24169,-27.67903 0.49872,-31.17008 5.23657,-39.39898 c 1.4671,-8.91718 -1.42358,-39.30069 6.60773,-42.29561 l 9.08536,34.4058 1.16023,4.25268 4.94341,14.78758 c 6.37647,31.54071 -0.44615,63.23709 7.37847,88.34444 l 22.94117,-1.2468 -1.99488,-15.95908 -0.91274,-19.33139 -1.29394,-26.82176 0.19519,-12.70045 0.0569,-17.54805 -7.69678,-74.19397 -0.0562,-22.393 -30.19015,6.91445 -25.68414,-1.49617 -9.53074,-2.1609 -3.35673,41.34812 -2.82225,53.57493 -0.49872,52.86445 0.74808,23.19054 -1.2468,13.96419"
       id="path2875"
       sodipodi:nodetypes="cccccccccccccccccccccccccc" />
  </g>
  <g
     inkscape:groupmode="layer"
     id="layer11"
     inkscape:label="nyak"
     style="display:inline">
    <path
       style="fill:#f0a878;fill-opacity:1;stroke:none;stroke-width:1px;stroke-linecap:butt;stroke-linejoin:miter;stroke-opacity:1"
       d="m 168.91409,189.70067 3.93985,-0.61974 1.0254,-2.28569 0.37504,-4.06819 19.70943,-0.85157 -0.5468,6.24302 3.61574,2.84421 v 0 l 1.91493,3.51594 -15.08764,7.11648 -13.59281,-3.53568 -1.35314,-8.35878"
       id="path61116"
       sodipodi:nodetypes="cccccccccccc" />
  </g>
  <g
     inkscape:groupmode="layer"
     id="layer8"
     inkscape:label="fej"
     style="display:inline">
    <g
       inkscape:groupmode="layer"
       id="layer9"
       inkscape:label="fej árnyék"
       style="display:inline">
      <path
         style="display:inline;fill:#cc8b5f;fill-opacity:1;stroke:none;stroke-width:1px;stroke-linecap:butt;stroke-linejoin:miter;stroke-opacity:1"
         d="m 166.95585,167.99762 c 1.48659,-3.14487 1.53509,-1.89411 2.20895,-2.55483 l -0.0766,-13.81486 2.07541,-5.37148 6.42054,-0.27834 7.0146,0.49261 5.62034,0.53587 3.98869,1.76528 1.73372,2.44392 0.13927,2.52491 -0.0675,3.44676 0.36158,2.48789 0.86441,3.34431 c 0.20501,1.77429 0.41199,2.22591 1.89323,2.97969 -5.33788,11.29535 -4.96799,6.41701 -5.46486,17.33469 l -6.01011,3.03274 -6.17202,0.73253 c -2.4989,-0.41237 -4.63914,-1.34989 -6.88968,-2.43378 -2.02803,-2.73901 -2.86313,-5.89898 -3.80468,-9.10613 -0.59647,-2.80308 0.74034,-0.76339 -2.00731,-1.94472 l -1.89876,-3.43071 0.0708,-2.18635"
         id="path53866-5"
         sodipodi:nodetypes="cccccccccccccccccccccc" />
    </g>
    <path
       style="fill:#ffb380;fill-opacity:1;stroke:none;stroke-width:1px;stroke-linecap:butt;stroke-linejoin:miter;stroke-opacity:1"
       d="m 166.117,167.53756 c 1.48659,-3.14487 1.53509,-1.89411 2.20895,-2.55483 l -0.0766,-13.81487 2.07541,-5.37148 6.42054,-0.27834 7.0146,0.49261 5.62034,0.53587 3.98869,1.76528 1.73372,2.44392 0.13927,2.52491 -0.0675,3.44676 0.36158,2.48789 0.86441,3.34432 c 0.20501,1.77429 0.41199,2.22591 1.89323,2.97969 2.7318,0.06 1.96232,1.88164 1.28179,4.10953 -1.15274,1.99432 -0.53122,3.90146 -2.71099,4.68768 l -0.87818,0.12883 -0.35471,3.63387 -0.90251,3.80108 -5.69724,3.35548 -4.7162,1.29329 -3.66895,0.0902 c -2.4989,-0.41237 -4.67089,-1.4541 -6.92143,-2.53799 -2.02803,-2.73901 -2.83138,-5.79477 -3.77293,-9.00192 -0.59647,-2.80308 0.74034,-0.76339 -2.00731,-1.94472 l -1.89876,-3.43071 0.0708,-2.18635"
       id="path53866"
       sodipodi:nodetypes="ccccccccccccccccccccccccccc" />
  </g>
  <g
     inkscape:groupmode="layer"
     id="layer10"
     inkscape:label="haj"
     style="display:inline">
    <path
       style="fill:#28170b;stroke:none;stroke-width:1px;stroke-linecap:butt;stroke-linejoin:miter;stroke-opacity:1"
       d="m 171.43127,149.85601 2.44596,-1.11461 c 1.37848,-0.32635 2.15658,-1.02728 3.12612,-1.97692 l 4.40683,-0.22201 1.09072,0.11276 1.12932,-0.73722 5.33253,0.54865 4.09487,1.55869 1.81495,2.32496 0.30186,6.37708 0.36155,2.48789 0.59024,5.20068 c 0.15999,0.44839 1.19875,0.49905 1.19875,0.49905 1.03925,-0.86911 0.73615,-1.94721 1.60448,-4.76306 0.38431,-1.24625 -0.0438,-2.49327 -0.0147,-4.14436 0.0279,-1.58517 0.3166,-4.28897 0.34658,-5.9866 -0.2485,-0.6024 -0.67355,-1.57597 -1.13277,-1.71145 -0.85111,-0.25109 -1.85535,-0.91017 -2.06087,-0.27414 l -0.27132,-1.5584 -0.19663,-1.29968 -1.11072,-3.5394 c -0.50062,-1.82451 -0.12688,-4.33657 -6.90698,-6.40395 -2.92269,-0.77674 -4.04143,-0.59244 -7.0814,0.38047 l 3.99015,1.36197 c 5.51788,3.90158 6.57106,4.09029 0,0 l -2.89466,-0.61665 -2.93162,-0.82503 c 1.54548,0.95568 2.00347,0.45415 2.55516,2.06083 l -0.47319,-0.33526 c -0.81103,-0.76797 -0.0959,-0.4739 -4.97867,-1.23924 l -5.19112,1.19976 3.86099,-0.18859 c 9.35722,3.11249 -0.46755,-0.39515 -4.19675,1.05412 -0.73351,0.3237 4.31183,0.30756 3.9801,1.04249 l -6.62696,3.39181 c 1.77084,-0.64461 5.74951,-2.09602 6.13778,-1.56294"
       id="path43116"
       sodipodi:nodetypes="ccccccccccccssscsccccccccccccccccccc" />
    <path
       style="fill:#28170b;stroke:none;stroke-width:1px;stroke-linecap:butt;stroke-linejoin:miter;stroke-opacity:1"
       d="m 173.73189,140.95771 c -4.4456,0.49799 -4.97484,2.35884 -7.00438,6.04538 l 4.24137,-3.75867 -5.3514,7.07109 5.81645,-4.05445 -4.29866,3.36255 -0.46213,4.61245 -0.0934,4.812 1.74621,5.93467 1.06599,-0.0905"
       id="path43130"
       sodipodi:nodetypes="cccccccccc" />
    <path
       style="fill:#28170b;stroke:none;stroke-width:1px;stroke-linecap:butt;stroke-linejoin:miter;stroke-opacity:1"
       d="m 169.39194,164.89223 -0.23716,-4.25995 2.8313,-8.9158 c -2.58528,-3.82995 0.0468,0.97636 -0.55484,-1.86047"
       id="path43132"
       sodipodi:nodetypes="cccc" />
  </g>
  <g
     inkscape:groupmode="layer"
     id="layer1"
     inkscape:label="polo árnyék"
     style="display:inline">
    <path
       style="display:inline;fill:#9e9086;fill-opacity:1;stroke:none;stroke-width:0.954198px;stroke-linecap:butt;stroke-linejoin:miter;stroke-opacity:1"
       d="m 137.6199,309.43002 2.0039,-5.96622 1.51193,-5.27467 0.50954,-8.18082 2.10581,-8.79771 1.81096,-11.53205 -0.11476,-3.21316 0.22861,-2.726 c 1.63998,-4.86406 2.20962,-9.16446 2.7682,-11.46454 1.61508,-6.65051 2.80459,-1.03043 1.80761,-6.44625 l 4.78595,-19.67367 -0.37397,27.6734 -1.64596,7.13627 -0.94313,8.43062 c -0.091,4.48633 -1.8186,5.99002 -1.8578,9.12657 l -0.81058,8.72256 -1.27219,12.77808 12.15911,0.97857 c 7.426,-1.15784 11.62176,5.87254 18.8891,5.87904 13.66779,-1.50701 28.74548,-4.13964 36.5178,-5.9878 l -2.97793,-3.83615 -0.66195,-10.13101 v 0 l -0.21829,-6.93414 1.99844,-11.92228 c 0.52146,-1.97877 -0.0356,-3.98936 -0.41304,-5.99465 l 2.3254,-29.33439 1.59372,8.85652 0.11257,12.52601 -0.61416,13.63843 -0.17233,8.98901 0.70916,9.00302 0.57902,6.59245 2.04877,12.71735 c 0.75702,3.01177 1.82292,5.93522 1.2319,9.33246 l 9.0232,1.81475 2.86958,-12.80257 0.97516,-7.11231 0.54861,-37.76806 -1.03759,-28.71443 -3.01449,-14.55505 c -2.49128,-18.82337 -18.31284,-15.45149 -31.60939,-20.80358 -7.38549,10.75936 -22.42337,7.08549 -24.13855,-0.56701 -9.47658,0.0639 -23.54027,1.30792 -28.63855,5.35608 -4.05055,3.21625 -7.5819,8.25321 -8.9609,16.03217 -0.88688,4.77883 -2.79515,10.42344 -3.89904,15.9546 -1.40223,2.6381 -1.26787,4.83683 -1.30414,7.08436 -1.55648,7.7756 -2.85229,13.96778 -2.38732,14.09402 l -2.03591,14.25604 c -0.25999,4.96947 -1.9612,9.92331 -1.56485,14.90497 l 1.00479,14.30931 3.14347,10.80795 -0.59043,3.20196 6.81623,-1.61684 z"
       id="path3237-2"
       sodipodi:nodetypes="ccccccccsccccccccccccccccccccccccccccccccccsccccccccccc" />
  </g>
  <g
     inkscape:groupmode="layer"
     id="layer4"
     inkscape:label="felső test"
     style="display:inline">
    <path
       style="fill:#ac9d93;stroke:none;stroke-width:1px;stroke-linecap:butt;stroke-linejoin:miter;stroke-opacity:1"
       d="m 140.1782,314.41254 -2.5583,-4.98252 1.51193,-5.7932 0.50954,-8.98503 2.10581,-9.66257 1.81096,-12.6657 -0.11476,-3.52903 0.22861,-2.99398 c 1.63998,-5.34221 2.20962,-10.06536 2.7682,-12.59155 1.61508,-7.30429 2.80459,-1.13173 1.80761,-7.07995 l 4.78595,-21.60768 -0.37397,30.39382 -1.64596,7.8378 -0.94313,9.25939 c -0.091,4.92736 -1.8186,6.57886 -1.8578,10.02375 l -0.81058,9.58003 -1.27219,14.03422 13.31002,-1.0859 1.71044,0.51482 15.66896,1.50797 c 12.46603,-1.67924 22.74642,-3.79819 35.19403,-5.73434 l 3.68646,0.0394 -3.34091,-9.73274 1.8276,-3.67148 -1.52206,-3.72995 -0.82826,-13.2027 c 0.52146,-2.1733 -0.0356,-4.38154 -0.41304,-6.58396 l 2.3254,-32.21809 1.59372,9.72715 0.11257,13.75738 -0.61416,14.97915 -0.17233,9.87267 0.70916,9.88806 0.57902,7.24052 2.04877,13.96752 c 0.75702,3.30784 1.82292,6.51868 1.2319,10.24988 l 9.94236,1.23166 2.61081,-13.18079 0.31477,-7.93032 0.54861,-41.48083 -1.03759,-31.5372 -3.01449,-15.98587 c -2.49128,-20.6738 -18.31284,-16.97045 -31.60939,-22.84867 -7.38549,11.81705 -23.79821,6.62078 -25.51339,-1.784 -1.28522,0.20217 -10.85983,3.55108 -15.62966,3.92501 -9.55988,0.74945 -14.7831,6.87173 -18.92839,21.02481 -2.11381,9.14666 -6.75591,16.21106 -6.86974,25.00604 -1.55648,8.53997 -2.85229,15.34087 -2.38732,15.47952 l -2.03591,15.65748 c -0.25999,5.45799 -1.9612,10.89882 -1.56485,16.3702 l 1.00479,15.71598 3.14347,11.87042 -0.59043,3.51672 6.81623,-1.77578 z"
       id="path3237"
       sodipodi:nodetypes="ccccccccscccccccccccccccccccccccccccccccccccscccccccccc" />
  </g>
</svg>
